<?xml version="1.0" encoding="utf-8"?>
<!-- Generator: Adobe Illustrator 22.1.0, SVG Export Plug-In . SVG Version: 6.00 Build 0)  -->
<svg version="1.1" xmlns="http://www.w3.org/2000/svg" xmlns:xlink="http://www.w3.org/1999/xlink" x="0px" y="0px"
	 viewBox="0 0 254.7 247.3" style="enable-background:new 0 0 254.7 247.3;" xml:space="preserve">
<style type="text/css">
	.st0{fill:none;stroke: rgba(0,238,242, 0.03);stroke-miterlimit:10;}
	.st1{display:none;}
</style>
<g id="Isolation_Mode">
	<g id="XMLID_2156_">
		<g id="XMLID_1205_">
			<g id="XMLID_7_">
				<g>
					<g>
						<g>
							<g>
								<path class="st0" d="M136.4,198.5c0,0-0.2,0.1-0.6,0.3c-0.4,0.2-0.9,0.5-1.7,0.8c-0.7,0.3-1.6,0.8-2.6,1.2
									c-1,0.5-2.1,1-3.3,1.5c-4.9,2.2-11.4,4.8-17.9,6.8c-6.4,2-12.8,3.4-17.4,4.1c-1.2,0.2-2.2,0.3-3.1,0.5
									c-0.9,0.1-1.7,0.2-2.4,0.3c-1.3,0.1-2.1,0.2-2.1,0.2"/>
								<path class="st0" d="M51.7,209.3c0,0-0.3-0.1-0.7-0.3c-0.5-0.2-1.1-0.5-2-0.9c-0.9-0.4-1.8-0.9-2.9-1.5
									c-1.1-0.6-2.3-1.4-3.6-2.2c-2.5-1.8-5.2-3.9-7.7-6.8c-2.4-2.8-4.7-6.1-6.4-9.7c-3.6-7.2-4.8-15.9-4.8-22.8
									c0-0.8,0-1.7,0.1-2.5c0-0.8,0.1-1.6,0.1-2.3c0.1-1.4,0.3-2.7,0.4-3.8c0.1-1,0.3-1.9,0.4-2.5c0.1-0.6,0.1-0.9,0.1-0.9"/>
								<path class="st0" d="M100.6,206.2c0,0-0.8,0.2-2.2,0.4c-0.7,0.1-1.5,0.3-2.5,0.5c-1,0.1-2,0.3-3.2,0.5
									c-4.6,0.6-10.7,1.1-16.3,0.8c-5.7-0.2-10.9-1.2-14.6-2.2c-0.9-0.3-1.7-0.5-2.5-0.7c-0.7-0.2-1.3-0.5-1.8-0.7
									c-1-0.4-1.6-0.6-1.6-0.6"/>
								<path class="st0" d="M175.1,166.4c0,0-0.3,0.2-0.7,0.7c-0.5,0.4-1.2,1.1-2.2,1.9c-0.9,0.8-2.1,1.8-3.4,2.8
									c-1.3,1.1-2.8,2.3-4.5,3.6c-0.8,0.6-1.7,1.3-2.6,2c-0.9,0.7-1.9,1.3-2.8,2c-0.5,0.4-1,0.7-1.5,1.1c-0.5,0.3-1,0.7-1.5,1
									c-1,0.7-2.1,1.4-3.2,2.2c-4.4,2.8-9.1,5.7-13.9,8.2c-4.8,2.5-9.6,4.8-14.1,6.7c-2.3,0.9-4.4,1.8-6.5,2.5c-1,0.4-2,0.7-3,1.1
									c-1,0.3-1.9,0.6-2.8,0.9c-1.8,0.6-3.4,1-4.8,1.4c-1.4,0.4-2.7,0.7-3.7,1c-1,0.2-1.8,0.4-2.4,0.6c-0.5,0.1-0.8,0.2-0.8,0.2"
									/>
								<path class="st0" d="M184.4,170.6c0,0-1.2,1.1-3.3,3c-1.1,0.9-2.4,2-3.8,3.3c-1.5,1.3-3.2,2.6-5.1,4.1
									c-0.9,0.8-1.9,1.5-3,2.3c-1,0.8-2.1,1.6-3.2,2.4c-2.2,1.6-4.6,3.3-7,4.9c-2.5,1.7-5,3.3-7.7,5c-2.7,1.6-5.3,3.2-8.1,4.7
									c-2.7,1.5-5.4,2.9-8.1,4.3c-2.7,1.3-5.3,2.6-7.9,3.7c-2.6,1.2-5.1,2.1-7.4,3.1c-1.2,0.5-2.3,0.9-3.4,1.3
									c-1.1,0.4-2.2,0.8-3.2,1.1c-2,0.6-3.9,1.3-5.5,1.7c-1.6,0.5-3.1,0.9-4.2,1.2c-1.2,0.3-2.1,0.5-2.7,0.7c-0.6,0.1-1,0.2-1,0.2
									"/>
								<path class="st0" d="M63.1,202.3c0,0-0.2-0.1-0.6-0.2c-0.2-0.1-0.4-0.1-0.7-0.2c-0.3-0.1-0.6-0.2-0.9-0.3
									c-0.7-0.3-1.6-0.6-2.5-1c-0.9-0.4-2-0.9-3.1-1.4c-4.4-2.2-9.6-6-13.3-11c-3.8-4.9-6.2-10.9-7.3-15.8
									c-0.3-1.2-0.5-2.3-0.6-3.4c-0.1-1-0.3-1.9-0.3-2.7c-0.1-1.5-0.2-2.4-0.2-2.4"/>
								<g>
									<path class="st0" d="M91.9,219.1c0,0-0.9,0.1-2.4,0.4c-0.8,0.1-1.7,0.3-2.8,0.4c-1.1,0.1-2.3,0.2-3.6,0.4
										c-5.2,0.5-11.9,0.7-18.1,0c-6.2-0.6-12-2-16-3.4c-1-0.4-1.9-0.7-2.7-1c-0.8-0.3-1.4-0.6-2-0.9c-1.1-0.5-1.7-0.8-1.7-0.8"/>
								</g>
								<g>
									<path class="st0" d="M117.4,195.9c0,0-3.1,1.1-7.6,2.4c-4.5,1.3-10.5,2.7-16.2,3.4c-5.7,0.7-11.2,0.8-15.1,0.5
										c-1,0-1.8-0.2-2.6-0.2c-0.8-0.1-1.5-0.1-2-0.2c-1.1-0.2-1.7-0.3-1.7-0.3"/>
								</g>
							</g>
							<path class="st0" d="M13,190.9c0,0,2.7,0.3,5.3,0.5c2.7,0.2,5.4,0.2,5.4,0.2s0,0.1,0.1,0.2c0.1,0.1,0.2,0.4,0.3,0.6
								c0.3,0.5,0.7,1.3,1.2,2.1c0.2,0.5,0.5,0.9,0.9,1.4c0.3,0.5,0.7,1,1,1.5c0.3,0.5,0.7,1,1.2,1.6c0.4,0.5,0.8,1,1.2,1.6
								c0.9,1,1.8,2,2.7,2.9c0.9,0.9,1.8,1.7,2.6,2.3c1.6,1.3,2.7,2.1,2.7,2.1s0,0.2-0.1,0.4c0,0.3-0.1,0.6-0.2,1.1
								c-0.1,0.9-0.3,2.1-0.4,3.3c-0.1,0.6-0.1,1.2-0.2,1.8c0,0.6-0.1,1.1-0.1,1.5c0,0.9-0.1,1.5-0.1,1.5s0.4,0.2,1.1,0.6
								c0.7,0.4,1.7,0.9,3,1.5c2.5,1.2,6.1,2.5,9.9,3.5c3.9,0.9,7.9,1.7,11.1,2c1.6,0.2,2.9,0.3,3.8,0.3c0.9,0,1.5,0.1,1.5,0.1"/>
							<path class="st0" d="M86.7,196.1c0,0-0.3,0-0.8,0c-0.3,0-0.6,0-0.9,0c-0.3,0-0.7,0-1.2-0.1c-0.8-0.1-1.9,0-2.9-0.1
								c-1-0.1-2.1-0.2-3.2-0.3c-1.1-0.2-2.1-0.3-3.1-0.5c-1-0.2-1.8-0.4-2.6-0.6c-0.8-0.1-1.4-0.4-1.8-0.5
								c-0.4-0.1-0.7-0.2-0.7-0.2s0.1-2.3,0.5-4.7c0.2-1.2,0.4-2.3,0.6-3.2c0.2-0.9,0.3-1.5,0.3-1.5s-0.2-0.1-0.5-0.2
								c-0.3-0.2-0.9-0.4-1.5-0.7c-1.2-0.7-3-1.6-4.9-3.1c-3.8-2.8-7.8-7.6-10.1-13.6c-1.1-3-1.9-6.2-2.2-9.4
								c-0.4-3.2-0.2-6.4,0-9.1c0.1-0.7,0.1-1.4,0.2-2c0.1-0.6,0.2-1.3,0.3-1.8c0.1-1.1,0.4-2.2,0.6-3c0.1-0.4,0.2-0.8,0.2-1.1
								c0.1-0.3,0.2-0.6,0.2-0.8c0.1-0.5,0.2-0.7,0.2-0.7s-0.3-0.1-0.7-0.4c-0.5-0.2-1.2-0.6-1.9-1c-1.5-0.9-3.5-2.3-5.3-3.9
								c-0.4-0.4-0.9-0.8-1.3-1.2c-0.4-0.4-0.8-0.8-1.2-1.3c-0.7-0.8-1.4-1.7-2-2.4c-1.1-1.5-1.7-2.6-1.7-2.6"/>
							<path class="st0" d="M111.5,190.4c0,0,0.6-0.2,1.5-0.4c1-0.3,2.4-0.8,4-1.3c3.4-1.2,7.9-2.9,12.4-5c4.5-2.1,9-4.6,12.4-6.5
								c0.8-0.5,1.6-1,2.3-1.4c0.7-0.4,1.3-0.8,1.7-1.1c1-0.6,1.5-1,1.5-1s0.6,0.1,1.4,0.2c0.8,0.1,2,0.2,3.2,0.3
								c1.2,0.1,2.4,0.2,3.3,0.2c0.9,0,1.5,0,1.5,0s0.3-0.3,1-0.7c0.3-0.2,0.7-0.5,1.1-0.8c0.4-0.3,0.9-0.7,1.4-1.1
								c2.1-1.5,4.8-3.7,7.4-5.9c0.7-0.6,1.3-1.1,2-1.7c0.6-0.5,1.3-1.1,1.9-1.6c1.2-1.1,2.3-2.1,3.3-3c1.9-1.8,3.1-3,3.1-3
								s0.3-0.1,0.7-0.2c0.5-0.1,1.1-0.3,1.9-0.5c0.8-0.2,1.7-0.5,2.7-0.7c1-0.3,2.1-0.6,3.2-0.9c2.1-0.7,4.4-1.4,6.1-2.1
								c1.7-0.6,2.8-1.1,2.8-1.1s0.4-0.5,1.1-1.3c0.3-0.4,0.8-0.9,1.2-1.4c0.5-0.6,1-1.2,1.5-1.9c0.6-0.7,1.2-1.4,1.8-2.2
								c0.6-0.8,1.3-1.7,1.9-2.5c1.4-1.8,2.7-3.7,4.1-5.6c0.7-0.9,1.3-1.9,1.9-2.8c0.6-0.9,1.2-1.9,1.8-2.8c1.1-1.8,2.1-3.5,3-4.9
								c1.6-2.9,2.7-4.8,2.7-4.8"/>
							<path class="st0" d="M225,123.7c0,0-0.3,0.4-0.7,1.2c-0.2,0.4-0.5,0.9-0.8,1.4c-0.3,0.5-0.7,1.2-1.1,1.8
								c-1.6,2.7-3.9,6.3-6.4,9.8c-0.6,0.9-1.3,1.8-1.9,2.6c-0.3,0.4-0.6,0.9-0.9,1.3c-0.3,0.4-0.6,0.8-0.9,1.2
								c-1.3,1.6-2.4,3.2-3.4,4.5c-2.1,2.6-3.5,4.3-3.5,4.3s-0.3,2.7-0.7,5.5c-0.2,1.4-0.5,2.8-0.7,3.9c-0.2,1.1-0.4,1.8-0.4,1.8
								s-0.2,0.2-0.6,0.6c-0.4,0.4-0.9,1-1.6,1.7c-0.7,0.7-1.5,1.6-2.5,2.6c-0.5,0.5-1,1-1.5,1.6c-0.6,0.5-1.2,1.1-1.8,1.7
								c-1.2,1.2-2.6,2.5-4,3.8c-1.5,1.3-3,2.7-4.6,4.2c-1.6,1.4-3.3,2.8-5,4.3c-1.7,1.4-3.5,2.9-5.3,4.3
								c-7.2,5.7-14.7,10.8-20.5,14.4c-5.7,3.6-9.6,5.7-9.6,5.7"/>
							<path class="st0" d="M198.8,125.2c0,0-0.7,1.1-1.7,2.8c-0.5,0.8-1.1,1.8-1.8,2.8c-0.7,1-1.4,2.1-2.2,3.2
								c-0.8,1.1-1.5,2.2-2.3,3.2c-0.8,1-1.5,1.9-2.1,2.8c-0.6,0.8-1.2,1.5-1.5,1.9c-0.4,0.5-0.6,0.7-0.6,0.7s-1.1,0.4-2.7,0.9
								c-1.6,0.5-3.7,1.2-5.8,1.7c-2.1,0.6-4.1,1-5.6,1.3c-0.7,0.2-1.3,0.3-1.8,0.4c-0.4,0.1-0.7,0.1-0.7,0.1s-0.3,0.3-0.8,0.8
								c-0.5,0.5-1.2,1.3-2.2,2.2c-0.9,0.9-2,2-3.2,3c-0.6,0.5-1.2,1.1-1.8,1.7c-0.6,0.6-1.3,1.1-2,1.7c-1.3,1.2-2.7,2.2-3.9,3.2
								c-1.3,1-2.5,1.9-3.5,2.7c-2.1,1.5-3.5,2.5-3.5,2.5"/>
							<path class="st0" d="M19.3,177.2c0,0-0.1-0.9-0.3-2.3c-0.1-0.7-0.1-1.5-0.2-2.4c0-0.9-0.2-1.8-0.2-2.8c0-1.9-0.1-3.8,0-5.3
								c0-0.7,0.1-1.4,0.1-1.8c0-0.4,0-0.7,0-0.7s-0.8-0.4-1.9-1.1c-1.1-0.7-2.7-1.6-4-2.7c-0.7-0.5-1.4-1.1-2.1-1.6
								c-0.7-0.5-1.2-1.1-1.7-1.5c-1-0.9-1.6-1.6-1.6-1.6s0.1-0.5,0.3-1.4c0.2-0.9,0.6-2.2,1-3.7c0.1-0.4,0.2-0.8,0.3-1.2
								c0.1-0.4,0.3-0.9,0.4-1.3c0.3-0.9,0.6-1.8,0.9-2.8c0.3-1,0.7-2,1-3c0.4-1,0.8-2.1,1.2-3.1c0.8-2.1,1.7-4.2,2.6-6.2
								c0.9-2,1.8-3.9,2.5-5.4c1.6-3.2,2.7-5.3,2.7-5.3"/>
							<path class="st0" d="M127.7,214c0,0-0.7,0.3-1.8,0.8c-1.1,0.5-2.8,1.2-4.7,1.9c-3.9,1.6-9.1,3.4-14.3,5
								c-2.6,0.7-5.1,1.5-7.5,2c-1.2,0.3-2.3,0.6-3.4,0.8c-1.1,0.2-2.1,0.4-3,0.6c-0.9,0.2-1.8,0.3-2.5,0.5
								c-0.8,0.1-1.4,0.2-1.9,0.3c-1.1,0.2-1.7,0.3-1.7,0.3s-0.9,0.7-2.2,1.7c-1.4,1-3.2,2.2-5,3.5c-1.9,1.3-3.8,2.6-5.2,3.4
								c-1.4,0.9-2.4,1.5-2.4,1.5s-0.6,0-1.5,0.1c-1,0.1-2.3,0.1-3.9,0.1c-0.8,0-1.7,0-2.6,0c-0.9,0-1.9-0.1-2.8-0.1
								c-1,0-2-0.1-3-0.2c-1-0.1-2-0.2-3-0.3c-1-0.1-2-0.2-3-0.4c-1-0.2-1.9-0.3-2.8-0.5c-1.9-0.3-3.5-0.7-4.9-1
								c-0.7-0.2-1.3-0.3-1.9-0.5c-0.5-0.2-1-0.3-1.4-0.4c-0.8-0.2-1.2-0.4-1.2-0.4"/>
						</g>
						<g>
							<g>
								<path class="st0" d="M115,43.4c0,0,0.2-0.1,0.6-0.3c0.4-0.2,0.9-0.5,1.6-0.8c0.7-0.3,1.6-0.8,2.5-1.3c1-0.5,2.1-1,3.3-1.6
									c4.8-2.3,11.3-4.9,17.7-7c6.4-2.1,12.7-3.6,17.4-4.4c1.2-0.2,2.2-0.4,3.2-0.5c0.9-0.1,1.7-0.2,2.4-0.3
									c1.3-0.2,2.1-0.3,2.1-0.3"/>
								<path class="st0" d="M200.2,30.9c0,0,0.3,0.1,0.7,0.3c0.5,0.2,1.2,0.5,2,0.8c0.9,0.3,1.9,0.9,3,1.4c1.2,0.6,2.4,1.3,3.7,2.1
									c2.6,1.7,5.5,3.8,8,6.6c2.6,2.7,4.9,6,6.8,9.6c3.9,7.2,5.3,16,5.4,22.9c0,0.9,0,1.7,0,2.5c0,0.8-0.1,1.6-0.1,2.3
									c-0.1,1.5-0.2,2.8-0.3,3.8c-0.1,1.1-0.3,1.9-0.3,2.5c-0.1,0.6-0.1,0.9-0.1,0.9"/>
								<path class="st0" d="M150.6,35.1c0,0,0.8-0.2,2.2-0.5c0.7-0.1,1.5-0.4,2.5-0.5c1-0.2,2-0.4,3.2-0.6
									c4.7-0.7,10.8-1.3,16.5-1.2c5.8,0.1,11.1,0.9,14.9,1.8c0.9,0.2,1.8,0.5,2.5,0.7c0.8,0.2,1.4,0.4,1.9,0.6
									c1,0.4,1.6,0.6,1.6,0.6"/>
								<path class="st0" d="M77.2,75.4c0,0,0.3-0.2,0.7-0.7c0.5-0.4,1.2-1,2.1-1.8c0.9-0.8,2-1.8,3.3-2.8c1.3-1.1,2.8-2.3,4.4-3.5
									c0.8-0.6,1.7-1.3,2.5-2c0.9-0.7,1.8-1.3,2.8-2c0.5-0.3,1-0.7,1.5-1.1c0.5-0.3,1-0.7,1.5-1c1-0.7,2.1-1.4,3.1-2.2
									c4.3-2.8,8.9-5.7,13.6-8.3c4.7-2.6,9.5-4.9,13.9-6.9c2.2-0.9,4.4-1.9,6.4-2.6c1-0.4,2-0.8,3-1.1c1-0.3,1.9-0.6,2.8-0.9
									c1.8-0.6,3.4-1.1,4.8-1.5c1.4-0.5,2.7-0.8,3.7-1c1-0.3,1.8-0.5,2.4-0.6c0.5-0.1,0.8-0.2,0.8-0.2"/>
								<path class="st0" d="M68.3,71.4c0,0,1.1-1.1,3.2-2.9c1-0.9,2.3-2,3.7-3.2c1.4-1.3,3.1-2.6,4.9-4.1c0.9-0.8,1.9-1.5,2.9-2.3
									c1-0.8,2-1.6,3.1-2.4c2.2-1.6,4.4-3.3,6.9-4.9c2.4-1.7,4.9-3.3,7.5-5c2.6-1.6,5.2-3.2,7.9-4.7c2.7-1.6,5.3-2.9,8-4.3
									c2.7-1.3,5.3-2.6,7.8-3.8c2.5-1.2,5-2.2,7.3-3.2c1.2-0.5,2.3-0.9,3.4-1.3c1.1-0.4,2.2-0.8,3.2-1.2c2-0.7,3.9-1.4,5.5-1.8
									c1.6-0.5,3.1-0.9,4.2-1.3c1.2-0.3,2.1-0.5,2.7-0.7c0.6-0.2,1-0.2,1-0.2"/>
								<path class="st0" d="M188.6,38.2c0,0,0.2,0.1,0.6,0.2c0.2,0.1,0.5,0.1,0.7,0.2c0.3,0.1,0.6,0.2,1,0.3
									c0.7,0.3,1.6,0.5,2.6,0.9c0.9,0.4,2,0.8,3.2,1.4c4.5,2.1,10,5.8,13.9,10.7c4,4.9,6.6,10.9,7.8,15.8c0.3,1.2,0.6,2.4,0.7,3.4
									c0.1,1,0.4,1.9,0.4,2.7c0.1,1.5,0.2,2.4,0.2,2.4"/>
								<g>
									<path class="st0" d="M159.2,22.3c0,0,0.9-0.2,2.5-0.4c0.8-0.1,1.7-0.3,2.8-0.5c1.1-0.1,2.3-0.3,3.6-0.5
										c5.2-0.6,12-1,18.3-0.5c6.4,0.4,12.2,1.7,16.4,2.9c1,0.3,1.9,0.7,2.8,0.9c0.8,0.3,1.5,0.6,2.1,0.8c1.1,0.5,1.8,0.7,1.8,0.7
										"/>
								</g>
								<g>
									<path class="st0" d="M133.9,45.6c0,0,3.1-1.2,7.6-2.6c4.5-1.4,10.5-2.9,16.3-3.7c5.8-0.8,11.3-1,15.2-0.8
										c1,0,1.9,0.1,2.7,0.2c0.8,0.1,1.5,0.1,2,0.2c1.1,0.1,1.7,0.2,1.7,0.2"/>
								</g>
							</g>
							<path class="st0" d="M240.7,48.5c0,0-2.8-0.3-5.6-0.4c-2.9-0.1-5.7-0.1-5.7-0.1s0-0.1-0.1-0.2c-0.1-0.1-0.2-0.4-0.3-0.6
								c-0.3-0.5-0.7-1.3-1.3-2.1c-0.3-0.5-0.6-0.9-0.9-1.4c-0.3-0.5-0.7-1-1.1-1.5c-0.4-0.5-0.8-1-1.2-1.5c-0.4-0.5-0.9-1-1.3-1.6
								c-0.9-1-1.9-2-2.8-2.9c-1-0.8-1.9-1.6-2.7-2.3c-1.7-1.2-2.8-2-2.8-2s0-0.2,0.1-0.4c0-0.3,0.1-0.6,0.2-1.1
								c0.1-0.9,0.3-2.1,0.4-3.3c0.1-0.6,0.1-1.2,0.2-1.8c0-0.5,0.1-1.1,0.1-1.5c0-0.9,0.1-1.5,0.1-1.5s-0.4-0.2-1.1-0.6
								c-0.7-0.4-1.8-0.8-3.1-1.4c-2.6-1.1-6.3-2.3-10.2-3.2c-4-0.8-8.1-1.4-11.3-1.6c-1.6-0.1-2.9-0.2-3.9-0.2c-1,0-1.5,0-1.5,0"/>
							<path class="st0" d="M164.6,44.8c0,0,0.3,0,0.8,0c0.3,0,0.6,0,0.9,0c0.4,0,0.7,0,1.2,0c0.9,0,1.9,0,2.9,0.1
								c1,0.1,2.2,0.2,3.3,0.3c1.1,0.1,2.2,0.3,3.2,0.4c1,0.2,1.9,0.4,2.7,0.5c0.8,0.1,1.4,0.3,1.8,0.4c0.4,0.1,0.7,0.2,0.7,0.2
								s-0.1,2.3-0.5,4.7c-0.2,1.2-0.4,2.3-0.6,3.2c-0.2,0.9-0.3,1.5-0.3,1.5s0.2,0.1,0.6,0.2c0.3,0.2,0.9,0.3,1.5,0.7
								c1.3,0.6,3.1,1.6,5,3c4,2.7,8.1,7.5,10.5,13.4c1.2,3,2,6.2,2.4,9.5c0.4,3.2,0.3,6.4,0.1,9.2c-0.1,0.7-0.1,1.4-0.2,2
								c-0.1,0.7-0.2,1.3-0.3,1.9c-0.1,1.2-0.4,2.2-0.6,3.1c-0.1,0.4-0.2,0.8-0.2,1.1c-0.1,0.3-0.2,0.6-0.2,0.9
								c-0.1,0.5-0.2,0.7-0.2,0.7s0.3,0.1,0.8,0.4c0.5,0.2,1.2,0.6,2,1.1c1.6,0.9,3.7,2.3,5.5,3.9c0.5,0.4,0.9,0.8,1.4,1.2
								c0.4,0.4,0.8,0.9,1.2,1.3c0.8,0.9,1.5,1.7,2.1,2.5c1.1,1.5,1.8,2.6,1.8,2.6"/>
							<path class="st0" d="M139.7,50.9c0,0-0.6,0.2-1.5,0.4c-1,0.3-2.4,0.8-4,1.4c-3.3,1.2-7.8,3-12.3,5.2
								c-4.5,2.1-8.9,4.6-12.2,6.6c-0.8,0.5-1.6,1-2.2,1.4c-0.7,0.4-1.2,0.8-1.7,1.1c-0.9,0.6-1.5,1-1.5,1s-0.5-0.1-1.4-0.2
								c-0.8-0.1-1.9-0.2-3.1-0.3c-1.2-0.1-2.3-0.1-3.2-0.1c-0.9,0-1.5,0-1.5,0s-0.3,0.3-0.9,0.7c-0.3,0.2-0.7,0.5-1.1,0.8
								c-0.4,0.3-0.9,0.7-1.4,1.1c-2,1.5-4.7,3.7-7.2,5.9c-0.6,0.6-1.3,1.1-1.9,1.7c-0.6,0.5-1.3,1.1-1.8,1.6
								c-1.2,1.1-2.3,2.1-3.2,2.9c-1.8,1.8-3,2.9-3,2.9s-0.3,0.1-0.7,0.2c-0.4,0.1-1.1,0.3-1.8,0.5c-0.8,0.2-1.7,0.5-2.6,0.7
								c-1,0.3-2,0.6-3.1,0.9c-2.1,0.7-4.2,1.4-5.9,2c-1.6,0.6-2.7,1.1-2.7,1.1s-0.4,0.4-1.1,1.2C56.4,92,56,92.4,55.5,93
								c-0.4,0.6-1,1.2-1.5,1.9c-0.5,0.7-1.1,1.4-1.8,2.2c-0.6,0.8-1.2,1.6-1.9,2.5c-1.3,1.7-2.6,3.6-3.9,5.4
								c-0.7,0.9-1.3,1.9-1.9,2.8c-0.6,0.9-1.2,1.8-1.8,2.7c-1.1,1.8-2.1,3.4-2.9,4.8c-1.6,2.8-2.6,4.7-2.6,4.7"/>
							<path class="st0" d="M29,117.3c0,0,0.2-0.4,0.7-1.2c0.2-0.4,0.5-0.8,0.8-1.4c0.3-0.5,0.7-1.1,1.1-1.8
								c1.5-2.6,3.8-6.1,6.2-9.5c0.6-0.9,1.2-1.7,1.8-2.6c0.3-0.4,0.6-0.8,0.9-1.3c0.3-0.4,0.6-0.8,0.9-1.2c1.2-1.6,2.3-3.1,3.3-4.4
								c2-2.5,3.4-4.2,3.4-4.2s0.3-2.6,0.7-5.3c0.2-1.4,0.5-2.7,0.7-3.8c0.2-1.1,0.4-1.8,0.4-1.8s0.2-0.2,0.5-0.6
								c0.3-0.4,0.9-0.9,1.5-1.6c0.7-0.7,1.5-1.5,2.4-2.5c0.5-0.5,1-1,1.5-1.5c0.5-0.5,1.1-1.1,1.7-1.7c1.2-1.2,2.5-2.4,3.9-3.7
								c1.4-1.3,2.9-2.7,4.4-4.1c1.6-1.4,3.2-2.8,4.9-4.2c1.7-1.4,3.4-2.8,5.2-4.3c7-5.6,14.3-10.8,19.9-14.3
								c5.6-3.6,9.4-5.8,9.4-5.8"/>
							<path class="st0" d="M54.1,115.8c0,0,0.7-1.1,1.6-2.7c0.5-0.8,1.1-1.7,1.8-2.8c0.7-1,1.3-2.1,2.1-3.1
								c0.8-1.1,1.5-2.1,2.2-3.1c0.7-1,1.4-1.9,2-2.7c0.6-0.8,1.1-1.4,1.5-1.9c0.4-0.5,0.6-0.7,0.6-0.7s1.1-0.4,2.6-0.9
								c1.6-0.5,3.6-1.2,5.6-1.7c2-0.6,4-1,5.4-1.4c0.7-0.2,1.3-0.3,1.7-0.4c0.4-0.1,0.7-0.1,0.7-0.1s0.3-0.3,0.8-0.8
								c0.5-0.5,1.2-1.3,2.1-2.2c0.9-0.9,1.9-1.9,3.1-3c0.6-0.5,1.2-1.1,1.8-1.7c0.6-0.6,1.3-1.1,1.9-1.7c1.3-1.1,2.6-2.2,3.9-3.2
								c1.2-1,2.5-1.9,3.5-2.7c2.1-1.5,3.4-2.5,3.4-2.5"/>
							<path class="st0" d="M234.3,62.5c0,0,0.1,0.9,0.4,2.3c0.1,0.7,0.2,1.5,0.3,2.4c0.1,0.9,0.2,1.8,0.2,2.8c0.1,2,0.1,3.9,0,5.4
								c0,0.8,0,1.4-0.1,1.8c0,0.4,0,0.7,0,0.7s0.8,0.4,2,1.1c1.2,0.7,2.8,1.6,4.3,2.7c0.8,0.5,1.5,1.1,2.2,1.6
								c0.7,0.5,1.3,1.1,1.8,1.5c1,0.9,1.7,1.6,1.7,1.6s-0.1,0.5-0.3,1.4c-0.2,0.9-0.6,2.2-1,3.8c-0.1,0.4-0.2,0.8-0.3,1.2
								c-0.1,0.4-0.3,0.9-0.4,1.3c-0.3,0.9-0.6,1.9-0.9,2.9c-0.3,1-0.7,2.1-1.1,3.1c-0.4,1.1-0.8,2.1-1.2,3.2
								c-0.9,2.2-1.8,4.4-2.6,6.4c-0.9,2.1-1.8,4-2.6,5.6c-1.7,3.3-2.8,5.5-2.8,5.5"/>
							<path class="st0" d="M123.6,28.2c0,0,0.6-0.3,1.8-0.8c1.1-0.5,2.7-1.2,4.7-2c3.9-1.7,9-3.5,14.1-5.2c2.5-0.8,5.1-1.6,7.5-2.2
								c1.2-0.3,2.3-0.6,3.4-0.9c1.1-0.2,2.1-0.5,3-0.7c0.9-0.2,1.8-0.4,2.6-0.6c0.8-0.1,1.4-0.3,1.9-0.4c1.1-0.2,1.7-0.3,1.7-0.3
								s0.9-0.7,2.2-1.7c1.4-1,3.2-2.3,5-3.6c1.9-1.3,3.8-2.6,5.2-3.5c1.4-0.9,2.4-1.6,2.4-1.6s0.6,0,1.5-0.1c1-0.1,2.4-0.1,4-0.2
								c0.8,0,1.7-0.1,2.6-0.1c0.9,0,1.9,0,2.9,0c1,0,2,0,3.1,0.1c1,0.1,2.1,0.1,3.1,0.2c1,0.1,2.1,0.1,3.1,0.3c1,0.1,2,0.2,2.9,0.4
								c1.9,0.2,3.6,0.6,5,0.8c0.7,0.1,1.4,0.3,2,0.4c0.6,0.1,1.1,0.3,1.5,0.4c0.8,0.2,1.3,0.3,1.3,0.3"/>
						</g>
					</g>
				</g>
			</g>
		</g>
		<path id="XMLID_1310_" class="st0" d="M195.6,16.9l-2.1-0.2c-0.4,0-0.5-0.4-0.2-0.9l0,0c0.3-0.5,0.9-0.8,1.3-0.7l2.1,0.2
			c0.4,0,0.5,0.4,0.2,0.9l0,0C196.6,16.6,196,16.9,195.6,16.9z"/>
		<path id="XMLID_1757_" class="st0" d="M148.1,31.1l-2.5,0.7c-0.5,0.1-0.8-0.1-0.7-0.5l0,0c0.1-0.4,0.6-0.9,1.1-1l2.5-0.7
			c0.5-0.1,0.8,0.1,0.7,0.5l0,0C149,30.5,148.6,30.9,148.1,31.1z"/>
		<path id="XMLID_1384_" class="st0" d="M8.3,146.6l1-2.7c0.2-0.5,0.8-1.1,1.4-1.2l0,0c0.6-0.1,0.9,0.3,0.7,0.8l-1,2.7
			c-0.2,0.5-0.8,1.1-1.4,1.2l0,0C8.4,147.5,8.1,147.1,8.3,146.6z"/>
		<path id="XMLID_1756_" class="st0" d="M74.5,209.1l-1.9-0.2c-0.4,0-0.5-0.4-0.2-0.8l0,0c0.2-0.4,0.7-0.7,1.1-0.7l1.9,0.2
			c0.4,0,0.5,0.4,0.2,0.8l0,0C75.3,208.8,74.8,209.1,74.5,209.1z"/>
		<path id="XMLID_1385_" class="st0" d="M204.9,137.8l1.5-2.1c0.3-0.4,0.8-0.7,1.2-0.6l0,0c0.4,0.1,0.4,0.5,0.1,0.9l-1.5,2.1
			c-0.3,0.4-0.8,0.7-1.2,0.6l0,0C204.7,138.6,204.6,138.2,204.9,137.8z"/>
		<path id="XMLID_1386_" class="st0" d="M224.2,53.3l-0.8-1.4c-0.2-0.3,0.1-0.8,0.5-1.1l0,0c0.4-0.3,0.9-0.3,1.1-0.1l0.8,1.4
			c0.2,0.3-0.1,0.8-0.5,1.1l0,0C224.9,53.6,224.4,53.6,224.2,53.3z"/>
		<path id="XMLID_1755_" class="st0" d="M135.7,203.7l2.3-1.2c0.5-0.2,0.9-0.1,0.9,0.2l0,0c0,0.3-0.3,0.8-0.7,1l-2.3,1.2
			c-0.5,0.2-0.9,0.1-0.9-0.2l0,0C134.9,204.4,135.2,203.9,135.7,203.7z"/>
		<path id="XMLID_1387_" class="st0" d="M80,52L78,53.6c-0.4,0.3-0.9,0.4-1.1,0.1l0,0c-0.2-0.3,0-0.7,0.4-1l2.1-1.6
			c0.4-0.3,0.9-0.4,1.1-0.1l0,0C80.6,51.2,80.4,51.7,80,52z"/>
		<path id="XMLID_675_" class="st0" d="M106.1,34.4c-0.3,0.6-1,1-1.5,1c-0.5,0-0.7-0.5-0.4-1c0.3-0.6,1-1,1.5-1
			C106.2,33.4,106.4,33.9,106.1,34.4z"/>
		<path id="XMLID_1207_" class="st0" d="M200.9,30.8c-0.3,0.6-1,1-1.6,1.1c-0.6,0-0.8-0.5-0.5-1c0.3-0.6,1-1,1.6-1.1
			C201,29.7,201.2,30.2,200.9,30.8z"/>
		<path id="XMLID_1235_" class="st0" d="M68.7,72c-0.3,0.6-1,1-1.5,1c-0.5,0-0.7-0.5-0.4-1c0.3-0.6,1-1,1.5-1
			C68.8,70.9,69,71.4,68.7,72z"/>
		<path id="XMLID_1218_" class="st0" d="M235.4,61.6c-0.3,0.6-1,1.1-1.6,1.1c-0.6,0-0.8-0.5-0.5-1.1c0.3-0.6,1-1.1,1.6-1.1
			C235.5,60.6,235.8,61,235.4,61.6z"/>
		<path id="XMLID_1243_" class="st0" d="M211,26.1c-0.3,0.6-1,1.1-1.6,1.1c-0.6,0-0.8-0.5-0.5-1c0.3-0.6,1-1.1,1.6-1.1
			C211.1,25,211.3,25.5,211,26.1z"/>
		<path id="XMLID_1219_" class="st0" d="M176.8,165.7c-0.3,0.6-1,1-1.6,1c-0.6,0-0.8-0.5-0.5-1.1c0.3-0.6,1-1,1.6-1
			C176.9,164.6,177.1,165.1,176.8,165.7z"/>
		<path id="XMLID_1208_" class="st0" d="M200.2,124.5c-0.3,0.6-1,1.1-1.6,1c-0.6,0-0.8-0.5-0.5-1.1c0.3-0.6,1-1.1,1.6-1
			C200.3,123.4,200.5,123.9,200.2,124.5z"/>
		<path id="XMLID_1209_" class="st0" d="M88.3,196.1c-0.3,0.6-1,1-1.6,1c-0.6,0-0.8-0.5-0.4-1.1c0.3-0.6,1-1,1.6-1
			C88.4,195.1,88.6,195.5,88.3,196.1z"/>
		<path id="XMLID_1211_" class="st0" d="M43.4,213.9c-0.3,0.6-1,1-1.5,1c-0.5,0-0.7-0.5-0.4-1.1c0.3-0.6,1-1,1.5-1
			C43.5,212.8,43.7,213.3,43.4,213.9z"/>
		<path id="XMLID_1231_" class="st0" d="M85.7,214.4c-0.3,0.6-1,1-1.6,1c-0.6,0-0.8-0.5-0.4-1.1c0.3-0.6,1-1,1.6-1
			C85.8,213.3,86,213.8,85.7,214.4z"/>
		<path id="XMLID_1234_" class="st0" d="M146.7,208.4c-0.3,0.6-1,1-1.6,1c-0.6,0-0.8-0.5-0.5-1.1c0.3-0.6,1-1,1.6-1
			C146.8,207.4,147,207.9,146.7,208.4z"/>
		<path id="XMLID_1237_" class="st0" d="M21.9,119c-0.3,0.6-1,1-1.5,1c-0.5,0-0.7-0.5-0.4-1c0.3-0.6,1-1,1.5-1
			C22,118,22.2,118.4,21.9,119z"/>
		<path id="XMLID_1238_" class="st0" d="M20.3,178c-0.3,0.6-1,1-1.5,1c-0.5,0-0.7-0.5-0.4-1c0.3-0.6,1-1,1.5-1
			C20.4,176.9,20.6,177.4,20.3,178z"/>
		<path id="XMLID_1213_" class="st0" d="M13.1,190.7c-0.3,0.6-1,1-1.5,1c-0.5,0-0.7-0.5-0.4-1c0.3-0.6,1-1,1.5-1
			C13.2,189.7,13.4,190.1,13.1,190.7z"/>
		<path id="XMLID_1214_" class="st0" d="M40,125.2c-0.3,0.6-1,1-1.5,1c-0.5,0-0.7-0.5-0.4-1c0.3-0.6,1-1,1.5-1
			C40.1,124.2,40.3,124.6,40,125.2z"/>
		<path id="XMLID_1215_" class="st0" d="M141.9,50.3c-0.3,0.6-1,1-1.6,1c-0.6,0-0.8-0.5-0.4-1c0.3-0.6,1-1,1.6-1
			C142,49.3,142.2,49.8,141.9,50.3z"/>
		<path id="XMLID_1216_" class="st0" d="M213.9,7.6c-0.3,0.6-1,1.1-1.6,1.1c-0.6,0-0.8-0.5-0.5-1c0.3-0.6,1-1.1,1.6-1.1
			C214,6.6,214.2,7.1,213.9,7.6z"/>
		<path id="XMLID_1290_" class="st0" d="M164.6,44.8c-0.3,0.6-1,1-1.6,1c-0.6,0-0.8-0.5-0.5-1c0.3-0.6,1-1,1.6-1
			C164.8,43.8,165,44.3,164.6,44.8z"/>
		<path id="XMLID_1217_" class="st0" d="M242.7,48.6c-0.3,0.6-1,1.1-1.6,1.1c-0.6,0-0.8-0.5-0.5-1c0.3-0.6,1-1.1,1.6-1.1
			C242.8,47.5,243,48,242.7,48.6z"/>
		<path id="XMLID_1239_" class="st0" d="M220.7,77c-0.3,0.6-1,1.1-1.6,1.1c-0.6,0-0.8-0.5-0.5-1.1c0.3-0.6,1-1.1,1.6-1.1
			C220.8,76,221.1,76.4,220.7,77z"/>
		<path id="XMLID_1230_" class="st0" d="M226.4,122.8c-0.3,0.6-1,1.1-1.6,1.1c-0.6,0-0.8-0.5-0.5-1.1c0.3-0.6,1-1.1,1.6-1.1
			C226.6,121.7,226.8,122.2,226.4,122.8z"/>
		<path id="XMLID_1291_" class="st0" d="M229.9,87.8c-0.3,0.6-1,1.1-1.6,1.1c-0.6,0-0.8-0.5-0.5-1.1c0.3-0.6,1-1.1,1.6-1.1
			C230,86.7,230.2,87.2,229.9,87.8z"/>
		<path id="XMLID_1244_" class="st0" d="M111.5,190.8c-0.3,0.6-1,1-1.6,1c-0.6,0-0.8-0.5-0.4-1.1c0.3-0.6,1-1,1.6-1
			C111.7,189.7,111.9,190.2,111.5,190.8z"/>
	</g>
</g>
<g id="Layer_2" class="st1">
</g>
</svg>
